<svg version="1.1" xmlns="http://www.w3.org/2000/svg" xmlns:xlink="http://www.w3.org/1999/xlink" width="304.95714" height="299.95715" viewBox="0,0,304.95714,299.95715">
  <defs>
    <linearGradient x1="313.49347" y1="131.87051" x2="313.49347" y2="149.56956" gradientUnits="userSpaceOnUse" id="color-1">
      <stop offset="0" stop-color="#ffffff"/>
      <stop offset="1" stop-color="#9966ff"/>
    </linearGradient>
  </defs>
  <g transform="translate(-167.52143,-30.02142)">
    <g data-paper-data="{&quot;isPaintingLayer&quot;:true}" fill-rule="nonzero" stroke-linejoin="miter" stroke-miterlimit="10" stroke-dasharray="" stroke-dashoffset="0" style="mix-blend-mode: normal">
      <!-- Rounded rectangle -->
      <rect x="170.02143" y="30.02142" width="299.95715" height="299.95715" rx="20" ry="20" fill="#ffffff" stroke="none" stroke-width="0" stroke-linecap="butt"/>
      <path d="M297.48792,149.56956c0,-13.47166 10.92094,-24.39259 24.39259,-24.39259c13.47166,0 24.39259,10.92094 24.39259,24.39259c0,13.47166 -10.92094,24.39259 -24.39259,24.39259c-13.47166,0 -24.39259,-10.92094 -24.39259,-24.39259z" fill="#9966ff" stroke="none" stroke-width="NaN" stroke-linecap="butt"/>
      <path d="M344.39259,171.96215l14.51208,49.0757h-29.02416z" fill="#000000" stroke="none" stroke-width="0" stroke-linecap="butt"/>
      <path d="M287.60741,156c0,-13.47166 10.92094,-24.39259 24.39259,-24.39259c13.47166,0 24.39259,10.92094 24.39259,24.39259c0,13.47166 -10.92094,24.39259 -24.39259,24.39259c-13.47166,0 -24.39259,-10.92094 -24.39259,-24.39259z" fill-opacity="0.54902" fill="#9966ff" stroke="none" stroke-width="NaN" stroke-linecap="butt"/>
      <path d="M281.60741,161c0,-13.47166 10.92094,-24.39259 24.39259,-24.39259c13.47166,0 24.39259,10.92094 24.39259,24.39259c0,13.47166 -10.92094,24.39259 -24.39259,24.39259c-13.47166,0 -24.39259,-10.92094 -24.39259,-24.39259z" fill-opacity="0.40392" fill="#9966ff" stroke="none" stroke-width="NaN" stroke-linecap="butt"/>
      <path d="M271.60741,173c0,-13.47166 10.92094,-24.39259 24.39259,-24.39259c13.47166,0 24.39259,10.92094 24.39259,24.39259c0,13.47166 -10.92094,24.39259 -24.39259,24.39259c-13.47166,0 -24.39259,-10.92094 -24.39259,-24.39259z" fill-opacity="0.24314" fill="#9966ff" stroke="none" stroke-width="NaN" stroke-linecap="butt"/>
      <path d="M262.60741,182c0,-13.47166 10.92094,-24.39259 24.39259,-24.39259c13.47166,0 24.39259,10.92094 24.39259,24.39259c0,13.47166 -10.92094,24.39259 -24.39259,24.39259c-13.47166,0 -24.39259,-10.92094 -24.39259,-24.39259z" fill-opacity="0.24314" fill="#9966ff" stroke="none" stroke-width="NaN" stroke-linecap="butt"/>
      <text transform="translate(245.67144,271.64999) scale(1.34507,1.34507)" font-size="40" xml:space="preserve" fill="#000000" fill-rule="nonzero" stroke="none" stroke-width="1" stroke-linecap="butt" stroke-linejoin="miter" stroke-miterlimit="10" stroke-dasharray="" stroke-dashoffset="0" font-family="Sans Serif" font-weight="normal" text-anchor="start" style="mix-blend-mode: normal">
        <tspan x="0" dy="0" style="font-family: sans-serif;">Jump!</tspan>
      </text>
      <rect x="170.02143" y="219.79544" width="299.95715" height="5" fill="#000000" stroke="none" stroke-width="0"/>
      <path d="M305.12346,149.56956c-0.01131,-0.25395 -0.01702,-0.50935 -0.01702,-0.76608c0,-9.29896 7.49536,-16.84728 16.77407,-16.93296" fill="none" stroke="url(#color-1)" stroke-width="5" stroke-linecap="butt"/>
    </g>
  </g>
</svg>
